<svg
  width="32"
  height="32"
  viewBox="0 0 32 32"
  fill="none"
  xmlns="http://www.w3.org/2000/svg"
>
  <g>
  <animateTransform
    attributeName="transform"
    type="rotate"
    values="0 16 16;-30 16 16;-60 16 16;-90 16 16;-120 16 16;-150 16 16;-180 16 16;-210 16 16;-240 16 16;-270 16 16;-300 16 16;-330 16 16;-360 16 16"
    dur="900ms"
    calcMode="discrete"
    repeatCount="indefinite"
  />
  <path
    opacity="0.0833333"
    d="M22.2085 3.3264L19.1685 8.59183C18.9034 9.05099 19.0607 9.63812 19.5199 9.90322C19.979 10.1683 20.5661 10.011 20.8312 9.55183L23.8712 4.2864C24.1363 3.82724 23.979 3.24011 23.5199 2.97501C23.0607 2.70992 22.4736 2.86724 22.2085 3.3264Z"
    fill="white"
    style="fill: white; fill-opacity: 1"
  />
  <path
    opacity="0.166667"
    d="M27.7135 8.12856L22.4481 11.1686C21.9889 11.4337 21.8316 12.0208 22.0967 12.4799C22.3618 12.9391 22.9489 13.0964 23.4081 12.8313L28.6735 9.79133C29.1327 9.52623 29.29 8.9391 29.0249 8.47994C28.7598 8.02078 28.1727 7.86346 27.7135 8.12856Z"
    fill="white"
    style="fill: white; fill-opacity: 1"
  />
  <path
    opacity="0.25"
    d="M30.08 15.04H24C23.4698 15.04 23.04 15.4698 23.04 16C23.04 16.5302 23.4698 16.96 24 16.96H30.08C30.6102 16.96 31.04 16.5302 31.04 16C31.04 15.4698 30.6102 15.04 30.08 15.04Z"
    fill="white"
    style="fill: white; fill-opacity: 1"
  />
  <path
    opacity="0.333333"
    d="M28.6735 22.2086L23.408 19.1686C22.9489 18.9035 22.3618 19.0608 22.0967 19.52C21.8316 19.9791 21.9889 20.5663 22.448 20.8314L27.7135 23.8714C28.1726 24.1365 28.7598 23.9791 29.0249 23.52C29.29 23.0608 29.1326 22.4737 28.6735 22.2086Z"
    fill="white"
    style="fill: white; fill-opacity: 1"
  />
  <path
    opacity="0.416667"
    d="M23.8716 27.7136L20.8316 22.4482C20.5665 21.989 19.9793 21.8317 19.5202 22.0968C19.061 22.3619 18.9037 22.949 19.1688 23.4082L22.2088 28.6736C22.4739 29.1328 23.061 29.2901 23.5202 29.025C23.9793 28.7599 24.1367 28.1728 23.8716 27.7136Z"
    fill="white"
    style="fill: white; fill-opacity: 1"
  />
  <path
    opacity="0.5"
    d="M16.96 30.08V24C16.96 23.4698 16.5302 23.04 16 23.04C15.4698 23.04 15.04 23.4698 15.04 24V30.08C15.04 30.6102 15.4698 31.04 16 31.04C16.5302 31.04 16.96 30.6102 16.96 30.08Z"
    fill="white"
    style="fill: white; fill-opacity: 1"
  />
  <path
    opacity="0.583333"
    d="M9.79152 28.6736L12.8315 23.4082C13.0966 22.949 12.9393 22.3619 12.4801 22.0968C12.021 21.8317 11.4339 21.989 11.1688 22.4482L8.12875 27.7136C7.86366 28.1728 8.02098 28.7599 8.48014 29.025C8.9393 29.2901 9.52643 29.1328 9.79152 28.6736Z"
    fill="white"
    style="fill: white; fill-opacity: 1"
  />
  <path
    opacity="0.666667"
    d="M4.28648 23.8714L9.55192 20.8314C10.0111 20.5663 10.1684 19.9792 9.9033 19.5201C9.6382 19.0609 9.05108 18.9036 8.59192 19.1687L3.32648 22.2087C2.86732 22.4738 2.71 23.0609 2.9751 23.5201C3.24019 23.9792 3.82732 24.1365 4.28648 23.8714Z"
    fill="white"
    style="fill: white; fill-opacity: 1"
  />
  <path
    opacity="0.75"
    d="M1.91996 16.96H7.99996C8.53015 16.96 8.95996 16.5302 8.95996 16C8.95996 15.4698 8.53015 15.04 7.99996 15.04H1.91996C1.38977 15.04 0.959961 15.4698 0.959961 16C0.959961 16.5302 1.38977 16.96 1.91996 16.96Z"
    fill="white"
    style="fill: white; fill-opacity: 1"
  />
  <path
    opacity="0.833333"
    d="M3.32652 9.7914L8.59196 12.8314C9.05112 13.0965 9.63824 12.9392 9.90334 12.48C10.1684 12.0209 10.0111 11.4337 9.55196 11.1686L4.28652 8.12863C3.82736 7.86354 3.24023 8.02086 2.97514 8.48002C2.71004 8.93918 2.86736 9.5263 3.32652 9.7914Z"
    fill="white"
    style="fill: white; fill-opacity: 1"
  />
  <path
    opacity="0.916667"
    d="M8.12844 4.28636L11.1684 9.55179C11.4335 10.011 12.0207 10.1683 12.4798 9.90318C12.939 9.63808 13.0963 9.05096 12.8312 8.59179L9.79121 3.32636C9.52611 2.8672 8.93898 2.70988 8.47982 2.97498C8.02066 3.24007 7.86334 3.8272 8.12844 4.28636Z"
    fill="white"
    style="fill: white; fill-opacity: 1"
  />
  </g>
</svg>
